<?xml version="1.0" encoding="UTF-8" standalone="no"?>
<svg width="13px" height="12px" viewBox="0 0 13 12" version="1.1" xmlns="http://www.w3.org/2000/svg" xmlns:xlink="http://www.w3.org/1999/xlink">
    <!-- Generator: Sketch 3.7.2 (28276) - http://www.bohemiancoding.com/sketch -->
    <title>Group</title>
    <desc>Created with Sketch.</desc>
    <defs></defs>
    <g id="Page-1" stroke="none" stroke-width="1" fill="none" fill-rule="evenodd">
        <g id="-Demo" transform="translate(-539.000000, -90.000000)" fill="#3AA9E3">
            <g id="Group-2" transform="translate(20.000000, 20.000000)">
                <g id="double-arrow-left" transform="translate(525.500000, 76.000000) rotate(-90.000000) translate(-525.500000, -76.000000) translate(519.500000, 69.500000)">
                    <g id="Capa_1">
                        <g id="Group">
                            <path d="M6.06577593,1.44273577 C6.37593361,1.11356098 6.37593361,0.577760163 6.06577593,0.248585366 C5.75561826,-0.0805894309 5.25077178,-0.0805894309 4.94061411,0.248585366 L0.257875519,5.86500813 C0.0996348548,6.03295122 0.0252448133,6.253 0.0268381743,6.47299593 C0.0252448133,6.69299187 0.0996348548,6.91473171 0.257875519,7.0826748 L4.94056432,12.7024797 C5.25072199,13.0300163 5.75556846,13.0300163 6.06572614,12.7024797 C6.37588382,12.3749431 6.37588382,11.835813 6.06572614,11.5083293 L1.87204979,6.47468699 L6.06577593,1.44273577 Z" id="Shape"></path>
                            <path d="M11.7375436,1.44273577 C12.0524813,1.11186992 12.0524813,0.576069106 11.7407303,0.246894309 C11.4321162,-0.0822804878 10.9241328,-0.0822804878 10.6155685,0.246894309 L5.93287967,5.86500813 C5.774639,6.03295122 5.6986556,6.253 5.70184232,6.47299593 C5.70024896,6.69299187 5.774639,6.91473171 5.93287967,7.0826748 L10.6140249,12.7024797 C10.9257759,13.0300163 11.4322158,13.0300163 11.7391867,12.7024797 C12.0509378,12.3749431 12.0509378,11.835813 11.7391867,11.5083293 L7.54700415,6.47468699 L11.7375436,1.44273577 Z" id="Shape"></path>
                        </g>
                    </g>
                </g>
            </g>
        </g>
    </g>
</svg>